<svg width="2021" height="1308" viewBox="0 0 2021 1308" fill="none" xmlns="http://www.w3.org/2000/svg">
<g clip-path="url(#clip0_25_243)">
<path d="M972.83 848.559V820.849H691.953V514.951H1021.75V488.431H991.665V424.325H691.953V156.104H1040.58V91.9066H953.904V64.1974H582.418V912.756H1059.51V848.559H972.83Z" fill="#A49966"/>
<path d="M953.904 0V64.1974H1040.58V91.9066H1321.46V397.805H991.665V424.325H1021.75V488.431H1321.46V756.652H972.83V820.849H1059.51V848.558H1430.99V0H953.904Z" fill="#363020"/>
<path d="M1040.58 64.1974H953.904V91.9066H1040.58V64.1974Z" fill="#363020"/>
<path d="M1021.75 424.325H991.665V488.431H1021.75V424.325Z" fill="#363020"/>
<path d="M1059.51 820.849H972.83V848.559H1059.51V820.849Z" fill="#363020"/>
<path d="M0 1302.79V1036.3H181.4V1056.42H23.1321V1159.49H164.577V1179.61H23.1321V1282.67H183.229V1302.79H0Z" fill="#A49966"/>
<path d="M213.035 1302.79V1036.3H236.167V1302.79H213.035Z" fill="#A49966"/>
<path d="M268.26 1057.52C268.26 1047.83 275.391 1040.69 285.083 1040.69C294.775 1040.69 301.907 1047.83 301.907 1057.52C301.907 1067.21 294.775 1074.35 285.083 1074.35C275.391 1074.35 268.26 1067.21 268.26 1057.52ZM273.471 1302.79V1110.2H296.603V1302.79H273.471Z" fill="#A49966"/>
<path d="M372.766 1302.79V1130.31H322.753V1110.2H372.766V1058.71H395.898V1110.2H449.66V1130.31H395.898V1302.79H372.766Z" fill="#A49966"/>
<path d="M453.408 1206.49C453.408 1140.46 495.558 1104.98 547.857 1104.98C600.156 1104.98 639.654 1143.03 639.654 1205.39L639.288 1213.26H476.54C479.192 1260.63 509.364 1287.88 547.857 1287.88C571.355 1287.88 594.853 1275.9 605.367 1253.95H628.865C617.71 1290.53 582.967 1308.09 547.857 1308.09C488.152 1308.09 453.408 1265.2 453.408 1206.58V1206.49ZM613.87 1193.05C610.853 1151.62 585.161 1125.1 547.857 1125.1C510.553 1125.1 481.386 1148.6 477.729 1193.05H613.962H613.87Z" fill="#A49966"/>
<path d="M770.127 1302.79V1036.3H793.259V1159.49H967.527V1036.3H990.659V1302.79H967.527V1179.61H793.259V1302.79H770.127Z" fill="#363020"/>
<path d="M1020.56 1206.49C1020.56 1137.81 1061.98 1104.98 1119.12 1104.98C1176.27 1104.98 1217.68 1137.81 1217.68 1206.49C1217.68 1275.17 1176.63 1308 1119.12 1308C1061.61 1308 1020.56 1275.17 1020.56 1206.49ZM1194.46 1206.49C1194.46 1151.62 1163.1 1125.1 1119.03 1125.1C1074.96 1125.1 1043.6 1151.62 1043.6 1206.49C1043.6 1261.36 1075.33 1287.88 1119.03 1287.88C1162.73 1287.88 1194.46 1261.36 1194.46 1206.49Z" fill="#363020"/>
<path d="M1247.03 1218.01V1110.1H1270.17V1218.01C1270.17 1268.77 1297.78 1287.79 1338.1 1287.79C1378.42 1287.79 1406.03 1266.12 1406.03 1214.26V1110.1H1429.16V1214.26C1429.16 1277.73 1394.42 1308 1338.1 1308C1281.78 1308 1247.03 1281.48 1247.03 1218.01Z" fill="#363020"/>
<path d="M1459.34 1247.55V1246.09H1482.47V1247.55C1482.47 1269.23 1498.56 1287.88 1542.17 1287.88C1585.79 1287.88 1601.51 1272.97 1601.51 1248.65C1601.51 1198.63 1464.55 1240.78 1464.55 1163.14C1464.55 1131.41 1487.68 1104.89 1542.91 1104.89C1598.13 1104.89 1620.9 1133.24 1620.9 1165.34V1166.8H1597.76V1164.97C1597.76 1142.2 1579.11 1125.01 1542.91 1125.01C1506.7 1125.01 1487.68 1139.92 1487.68 1163.88C1487.68 1216.92 1624.64 1171.01 1624.64 1249.75C1624.64 1281.48 1601.51 1308 1542.17 1308C1487.31 1308 1459.34 1283.4 1459.34 1247.55Z" fill="#363020"/>
<path d="M1646.68 1206.49C1646.68 1140.46 1688.83 1104.98 1741.13 1104.98C1793.43 1104.98 1832.93 1143.03 1832.93 1205.39L1832.56 1213.26H1669.81C1672.46 1260.63 1702.64 1287.88 1741.13 1287.88C1764.63 1287.88 1788.12 1275.9 1798.64 1253.95H1822.14C1810.98 1290.53 1776.24 1308.09 1741.13 1308.09C1681.42 1308.09 1646.68 1265.2 1646.68 1206.58V1206.49ZM1807.14 1193.05C1804.12 1151.62 1778.43 1125.1 1741.13 1125.1C1703.82 1125.1 1674.66 1148.6 1671 1193.05H1807.23H1807.14Z" fill="#363020"/>
<path d="M1855.69 1247.55V1246.09H1878.82V1247.55C1878.82 1269.23 1894.83 1287.88 1938.53 1287.88C1982.23 1287.88 1997.87 1272.97 1997.87 1248.65C1997.87 1198.63 1860.9 1240.78 1860.9 1163.14C1860.9 1131.41 1884.04 1104.89 1939.26 1104.89C1994.49 1104.89 2017.25 1133.24 2017.25 1165.34V1166.8H1994.12V1164.97C1994.12 1142.2 1975.47 1125.01 1939.26 1125.01C1903.05 1125.01 1884.04 1139.92 1884.04 1163.88C1884.04 1216.92 2021 1171.01 2021 1249.75C2021 1281.48 1997.87 1308 1938.53 1308C1883.67 1308 1855.69 1283.4 1855.69 1247.55Z" fill="#363020"/>
</g>
<defs>
<clipPath id="clip0_25_243">
<rect width="2021" height="1308" fill="white"/>
</clipPath>
</defs>
</svg>
